<svg width="400" height="200" xmlns="http://www.w3.org/2000/svg">
  <rect width="400" height="200" fill="#000" />
  <g stroke="#00FFFF" stroke-width="1" opacity="0.5">
    <line x1="50" y1="30" x2="350" y2="30" />
    <line x1="50" y1="60" x2="350" y2="60" />
    <line x1="50" y1="90" x2="350" y2="90" />
    <line x1="50" y1="120" x2="350" y2="120" />
    <line x1="50" y1="150" x2="350" y2="150" />
    <line x1="50" y1="180" x2="350" y2="180" />
    <line x1="50" y1="30" x2="50" y2="180" />
    <line x1="100" y1="30" x2="100" y2="180" />
    <line x1="150" y1="30" x2="150" y2="180" />
    <line x1="200" y1="30" x2="200" y2="180" />
    <line x1="250" y1="30" x2="250" y2="180" />
    <line x1="300" y1="30" x2="300" y2="180" />
    <line x1="350" y1="30" x2="350" y2="180" />
  </g>
  <circle cx="200" cy="100" r="5" fill="#FF00FF" />
  <text x="210" y="105" fill="#FF00FF" font-family="monospace" font-size="10">LOCATION SCRAMBLED</text>
</svg>